<?xml version="1.0" encoding="UTF-8"?>
<svg id="SvgjsSvg1107" xmlns="http://www.w3.org/2000/svg" xmlns:svgjs="http://svgjs.dev/svgjs" version="1.1" viewBox="0 0 512 512">
  <!-- Generator: Adobe Illustrator 29.4.0, SVG Export Plug-In . SVG Version: 2.1.0 Build 152)  -->
  <defs>
    <style>
      .st0 {
        display: none;
        fill: #fff;
      }

      .st0, .st1, .st2 {
        stroke: #0e1b2f;
        stroke-miterlimit: 10;
      }

      .st1 {
        fill: #99b4bf;
      }

      .st3, .st2 {
        fill: #0e1b2f;
      }
    </style>
  </defs>
  <g>
    <path class="st0" d="M132.9,519.5H-88c-14.8,0-26.9-12-26.9-26.9V61.3c0-14.8,12-26.9,26.9-26.9h220.8c131.4,0,238,106.5,238,238v9.1c0,131.4-106.5,238-238,238h0Z"/>
    <path class="st2" d="M259.9,513.2c-64.9.4-155.3-.7-221-.7-8.2,0-16.5-2.7-23.2-7.7-9.4-6.8-15.5-17.9-16.2-29.4-.3-100.2,0-280.6-.1-382.5,0-14.4,0-37.8,0-52C-.6,19.4,17.5,1.5,39.1,1.6c55.7.4,145.8,0,200.9.3h13.4c23.3-.2,46.8,2.1,69.4,8.1,31.8,8.4,62,23,88.1,42.9,44.9,34,77.9,83.5,91.6,138.2,2.1,9,4.2,18.5,5.3,27.6,1,6.5,1.5,14.5,2,21,.2,6.4.4,14.3.3,20.7.9,138.5-111.5,252.6-250.2,252.8h0ZM259.9,485.8c116.6.4,215.8-89.8,224.9-206.3l.5-6.3.2-6.4c.2-6.1.2-13.4,0-19.5-1-63.8-30.7-125.8-79.6-166.8-25.8-21.9-56.6-37.8-89.3-46.4-18.4-4.8-37.5-6.9-56.5-7.1-4.3-.1-15.6,0-20.1,0-48.6,0-138.1.2-187.5.2h-13.4c-2.4,0-4.6.6-6.7,1.7-4.4,2.5-7.4,7.3-7.3,12.4v4.6c.1,94.6-.1,274.4,0,368.2v58.2c0,.5,0,.7,0,1.2v.4c.2,1,.3,2,.6,3,1.8,5.5,7.3,9.5,13.2,9.5,66-.6,155.7-.5,220.9-.7h0Z"/>
  </g>
  <path class="st1" d="M41.9,61.8v380.3c0,13.1,10.6,23.7,23.7,23.7h194.7c115.9,0,209.8-93.9,209.8-209.8v-8c0-115.9-94-209.8-209.8-209.8H65.6c-13.1,0-23.7,10.6-23.7,23.7h0Z"/>
  <path class="st3" d="M388.2,392.5l-151.4-255.7c-.3-.8-.8-1.6-1.4-2.3-1.6-2.5-4.7-3.6-7.5-2.9-1.6.2-3.1,1-4.2,2.2-1.1.9-1.8,2.1-2.2,3.4l-151.3,255.6c-3.4,1.8-5.1,5.7-3.9,9.4h0c1.3,4,5.6,6.3,9.8,5.3.9,0,1.8-.4,2.7-.8l90.2-27.9,55.6,44.2.6.6c2,2,5.1,2.3,7.5.9,0,0,0,0,0,0,.2-.1.3-.2.5-.3.5-.3,1-.7,1.5-1.2l.2-.2,47.4-46.2,97.5,30.2c.8.4,1.6.7,2.5.8h.5c3.8,1.3,8-.8,9.2-4.5l.5-1.6c1.2-3.6-.7-7.4-4.3-8.8h0ZM226.4,360.9c.7.2,1.4.3,2.1.3h1.9c4,0,7.2-3.2,7.2-7v-2.5h0v-120.5c0-3.9-3.2-7.1-7.2-7.1h-1.9c-4,0-7.2,3.2-7.2,7.1v114.6l-128.9,40,137-231.3,136.9,231.2-94.1-29.1c-3.8-1.2-8,.9-9.2,4.6l-.5,1.6c-1,3,.2,6.1,2.6,7.9l-36.2,35.3-41.4-32.9,38.9-12h0Z"/>
  <rect x="152" y="73.7" width="13.4" height="63.9" rx="6.7" ry="6.7" transform="translate(-30.9 125.7) rotate(-39.7)"/>
  <rect x="222" y="48.5" width="13.4" height="63.9" rx="6.7" ry="6.7"/>
  <rect x="268.4" y="98.9" width="63.9" height="13.4" rx="6.7" ry="6.7" transform="translate(27.2 269.2) rotate(-50.3)"/>
</svg>