<?xml version="1.0" encoding="UTF-8"?>
<svg id="Layer_1" xmlns="http://www.w3.org/2000/svg" version="1.1" viewBox="0 0 512 512">
  <!-- Generator: Adobe Illustrator 29.5.0, SVG Export Plug-In . SVG Version: 2.1.0 Build 137)  -->
  <defs>
    <style>
      .st0 {
        stroke: #34485c;
      }

      .st0, .st1, .st2, .st3, .st4, .st5, .st6 {
        stroke-linecap: round;
        stroke-linejoin: round;
      }

      .st0, .st2, .st3, .st5, .st6 {
        stroke-width: 13.7px;
      }

      .st0, .st5 {
        fill: #cbebee;
      }

      .st1 {
        stroke: #394b5d;
        stroke-width: 15px;
      }

      .st1, .st3, .st6 {
        fill: none;
      }

      .st2 {
        fill: #e7e685;
        stroke: #36495d;
      }

      .st3, .st5 {
        stroke: #35485c;
      }

      .st7 {
        fill: #fefefe;
      }

      .st4 {
        fill: #0a7bc0;
        stroke: #2c445b;
        stroke-width: 9.6px;
      }

      .st8 {
        fill: #84d2dd;
      }

      .st6 {
        stroke: #33465a;
      }
    </style>
  </defs>
  <g id="Generative_Object">
    <g>
      <g>
        <path class="st8" d="M487,115.4l-5.5.2H32.9l-5.8-.6c.5-43.8-21.3-97.8,40-103.1,125-10.8,270,8,396.7,1.9,33.5,10.5,22.8,63.3,23.3,92.2,0,3.1,0,6.3,0,9.4Z"/>
        <path class="st4" d="M131.4,54.1c13.5-4.8,30,12.3,15,22.7-17,11.8-39-14.2-15-22.7Z"/>
        <path class="st4" d="M73.9,54.1c13.9-4.7,29.7,12.5,15,22.7s-37.7-15.1-15-22.7Z"/>
      </g>
      <g>
        <path class="st7" d="M487,115.4c1.4,121.8.3,243.7-1.6,365.4-4.3,10-12.4,17.5-23,20-23.9,5.7-117.5.4-149.1.5-33.3.1-260.7,3-272.2-4.4s-14.3-14.8-16.1-27.1c0-118.3.8-236.6,2.1-354.8l5.8.6h448.6l5.5-.2Z"/>
        <g>
          <path class="st2" d="M244.9,152.6c215.9-14.9,227.6,304.5,16.4,310.2-203,5.5-222.6-296-16.4-310.2Z"/>
          <path class="st5" d="M180.3,228.8c1-.3,2-.5,3.1-.7,30.1-4.6,39.3,40.4,9.5,47.8-30.8,7.6-42.7-38.6-12.6-47.2Z"/>
          <path class="st0" d="M324.2,227.8c28.5-3.2,38.1,41.5,6.8,48.4-32,7.1-41.2-44.6-6.8-48.4Z"/>
        </g>
      </g>
    </g>
    <g>
      <line class="st1" x1="32.9" y1="115.6" x2="481.5" y2="115.6"/>
      <line class="st6" x1="188" y1="52.7" x2="187.5" y2="81.4"/>
      <path class="st1" d="M487,106.1c-.4-28.9,10.3-81.7-23.3-92.2-126.7,6.1-271.6-12.7-396.7-1.9C5.8,17.2,27.6,71.3,27.1,115.1c-1.3,118.2-2.2,236.5-2.1,354.8,1.8,12.2,5.3,20.2,16.1,27.1s238.8,4.5,272.2,4.4c31.6-.1,125.2,5.1,149.1-.5,10.6-2.5,18.7-9.9,23-20,1.9-121.7,3.1-243.6,1.6-365.4,0-3.1,0-6.3,0-9.4Z"/>
      <path class="st3" d="M356.1,375.9c-45.2-76.2-156.2-74.9-200.5,1.4"/>
    </g>
  </g>
</svg>