<?xml version="1.0" encoding="UTF-8"?>
<svg id="Layer_1" xmlns="http://www.w3.org/2000/svg" version="1.1" viewBox="0 0 512 139">
  <!-- Generator: Adobe Illustrator 29.4.0, SVG Export Plug-In . SVG Version: 2.1.0 Build 152)  -->
  <defs>
    <style>
      .st0 {
        fill: #f29979;
        stroke: #f29979;
        stroke-miterlimit: 10;
        stroke-width: 4.4px;
      }

      .st1 {
        fill: #090620;
      }

      .st2 {
        isolation: isolate;
      }
    </style>
  </defs>
  <g class="st2">
    <g class="st2">
      <path class="st1" d="M10.7,129.7c-6.5-.3-10.1-4-10.1-10.6V19.2c0-6.6,2.8-10.3,8.3-10.6,10.4-.7,22-1,35.2-1,35,0,47.6,15.2,47.6,61.5s-12.5,61.5-47.6,61.5-23.2-.4-33.3-1h-.1,0ZM75.4,69.3c0-36.2-7.9-48.3-31.2-48.3s-16.9.2-24.2.2-3.7,1.3-3.7,3.7v88.4c0,2.4,1,3.7,3,3.8,7.4,0,15.6.2,25,.2,23.4,0,31.2-12,31.2-48.2h0v.2Z"/>
      <path class="st1" d="M236.4,129.2c-3.2,0-5-1.7-5-4.9v-36c0-1-.1-1.7-.7-2.7L193.8,15c-1.8-3.3-.3-5.8,3.5-5.8h5.9c2.9,0,4.6,1.1,5.9,3.7l23.9,47c2,3.9,3.8,8.1,5,12,.3,1.1.4,1.7,1.2,1.7s.9-.6,1.2-1.7c1.2-4,3-8.1,4.9-12l23.9-47c1.2-2.5,3-3.7,5.9-3.7h5.5c3.9,0,5.4,2.4,3.7,5.8l-36.8,70.8c-.4,1-.7,1.7-.7,2.7v35.6c0,3.2-1.7,4.9-5,4.9h-5.5v.2Z"/>
      <path class="st1" d="M300.4,124.3V17.1c0-5.1,2.8-7.9,8-7.9h11.1c4.6,0,7.3,1.9,9.3,6l39.6,82c2.2,4.8,4.5,9.5,6.8,14.2.6,1,.9,1.3,2.1,1.3s1.5-.7,1.5-1.9V14.2c.1-3.2,1.8-4.9,5.1-4.9h5.4c3.2,0,5,1.7,5,4.9v107.2c0,5.1-2.8,7.9-8,7.9h-11.3c-4.6,0-7.3-1.9-9.3-6l-40.3-82.9c-2.1-4.4-4.3-8.9-6.3-13.3-.4-.9-.9-1.3-2-1.3s-1.5.8-1.5,1.9v13.8l.2,82.8c0,3.2-1.7,4.9-5,4.9h-5.5c-3.2,0-5-1.7-5-4.9h.1,0Z"/>
      <path class="st1" d="M413,129.2c-3.7,0-5.2-2.1-4.1-5.5l36.4-107.9c1.4-4.2,4.3-6.3,9.1-6.3h11.4c4.8,0,7.6,2.1,9.1,6.3l36.5,107.9c1.1,3.4-.4,5.5-4.1,5.5h-5.5c-3,0-4.9-1.3-5.8-4.1l-10.3-31.5c-.3-1.3-1.1-1.9-2.3-1.9h-46.4c-1.2,0-2,.6-2.3,1.9l-10.3,31.5c-.9,2.8-2.8,4.1-5.8,4.1h-5.6ZM478.5,78.6c1.7,0,2.3-1,1.9-2.4l-14.7-45.3c-.8-2.5-1.8-5.3-2.5-7.9-.3-1.3-1-1.9-2.3-1.9h-1.1c-1.3,0-2,.6-2.4,1.9-.8,2.5-1.7,5.2-2.4,7.9l-14.7,45.3c-.4,1.4.2,2.4,1.9,2.4h36.6-.3Z"/>
    </g>
  </g>
  <path class="st0" d="M210.8,121.2L156.3,7.8c0-.3-.2-.7-.4-1-.6-1.1-1.7-1.5-2.7-1.3-.6,0-1.1.4-1.5,1-.4.4-.7.9-.8,1.5l-54.5,113.2c-1.2.8-1.9,2.5-1.4,4.2h0c.4,1.8,2,2.8,3.5,2.3.3,0,.7-.1,1-.3l32.4-12.4,20,19.6.2.2c.8.9,1.9,1,2.7.4h0s.1,0,.2-.1c.2-.1.3-.3.6-.6h0l17-20.6,35.1,13.4c.3.2.6.3.9.3h.2c1.3.6,2.9-.3,3.3-2l.2-.7c.4-1.5-.2-3.3-1.5-3.9h-.1v.2ZM152.5,107.3c.2,0,.4.1.8.1h.7c1.4,0,2.7-1.4,2.7-3.1v-1.1h0v-53.4c0-1.8-1.2-3.1-2.7-3.1h-.7c-1.4,0-2.7,1.4-2.7,3.1v50.8l-46.4,17.7L153.5,15.8l49.3,102.5-33.9-13c-1.3-.6-2.9.4-3.3,2.1l-.2.7c-.3,1.3,0,2.8,1,3.5l-13.1,15.6-14.9-14.6,14.1-5.3h.1-.1Z"/>
</svg>